<mxfile host="Electron" modified="2023-07-11T13:48:48.959Z" agent="Mozilla/5.0 (Windows NT 10.0; Win64; x64) AppleWebKit/537.36 (KHTML, like Gecko) draw.io/21.6.1 Chrome/112.0.5615.204 Electron/24.6.1 Safari/537.36" etag="Plnd0rd5gYzZd0QQ0UV1" version="21.6.1" type="device">
  <diagram name="Page-1" id="t0Lgox1frVnEfwLsOVVL">
    <mxGraphModel dx="1674" dy="844" grid="1" gridSize="10" guides="1" tooltips="1" connect="1" arrows="1" fold="1" page="1" pageScale="1" pageWidth="827" pageHeight="1169" math="0" shadow="0">
      <root>
        <mxCell id="0" />
        <mxCell id="1" parent="0" />
        <mxCell id="bDAtfT-rGfy-mzZIfNgj-1" value="" style="ellipse;html=1;shape=startState;fillColor=#000000;strokeColor=#ff0000;" vertex="1" parent="1">
          <mxGeometry x="110" y="30" width="30" height="30" as="geometry" />
        </mxCell>
        <mxCell id="bDAtfT-rGfy-mzZIfNgj-2" value="" style="edgeStyle=orthogonalEdgeStyle;html=1;verticalAlign=bottom;endArrow=open;endSize=8;strokeColor=#ff0000;rounded=0;" edge="1" source="bDAtfT-rGfy-mzZIfNgj-1" parent="1">
          <mxGeometry relative="1" as="geometry">
            <mxPoint x="125" y="120" as="targetPoint" />
          </mxGeometry>
        </mxCell>
        <mxCell id="bDAtfT-rGfy-mzZIfNgj-6" value="" style="edgeStyle=orthogonalEdgeStyle;rounded=0;orthogonalLoop=1;jettySize=auto;html=1;" edge="1" parent="1" source="bDAtfT-rGfy-mzZIfNgj-3">
          <mxGeometry relative="1" as="geometry">
            <mxPoint x="125" y="230" as="targetPoint" />
          </mxGeometry>
        </mxCell>
        <mxCell id="bDAtfT-rGfy-mzZIfNgj-3" value="Saisir un nombre entier" style="html=1;whiteSpace=wrap;" vertex="1" parent="1">
          <mxGeometry x="70" y="120" width="110" height="50" as="geometry" />
        </mxCell>
        <mxCell id="bDAtfT-rGfy-mzZIfNgj-12" value="" style="edgeStyle=orthogonalEdgeStyle;rounded=0;orthogonalLoop=1;jettySize=auto;html=1;" edge="1" parent="1" source="bDAtfT-rGfy-mzZIfNgj-7" target="bDAtfT-rGfy-mzZIfNgj-9">
          <mxGeometry relative="1" as="geometry" />
        </mxCell>
        <mxCell id="bDAtfT-rGfy-mzZIfNgj-7" value="ecrire i&lt;br&gt;i + 1" style="rounded=1;whiteSpace=wrap;html=1;arcSize=40;fontColor=#000000;fillColor=#ffffc0;strokeColor=#ff0000;" vertex="1" parent="1">
          <mxGeometry x="65" y="231" width="120" height="40" as="geometry" />
        </mxCell>
        <mxCell id="bDAtfT-rGfy-mzZIfNgj-14" value="non" style="edgeStyle=orthogonalEdgeStyle;rounded=0;orthogonalLoop=1;jettySize=auto;html=1;" edge="1" parent="1" source="bDAtfT-rGfy-mzZIfNgj-9">
          <mxGeometry relative="1" as="geometry">
            <mxPoint x="300" y="360" as="targetPoint" />
          </mxGeometry>
        </mxCell>
        <mxCell id="bDAtfT-rGfy-mzZIfNgj-16" value="oui" style="edgeStyle=orthogonalEdgeStyle;rounded=0;orthogonalLoop=1;jettySize=auto;html=1;" edge="1" parent="1" source="bDAtfT-rGfy-mzZIfNgj-9">
          <mxGeometry relative="1" as="geometry">
            <mxPoint x="125" y="490" as="targetPoint" />
          </mxGeometry>
        </mxCell>
        <mxCell id="bDAtfT-rGfy-mzZIfNgj-9" value="nombre % i = 0" style="rhombus;whiteSpace=wrap;html=1;fontColor=#000000;fillColor=#ffffc0;strokeColor=#ff0000;" vertex="1" parent="1">
          <mxGeometry x="30" y="310" width="190" height="100" as="geometry" />
        </mxCell>
        <mxCell id="bDAtfT-rGfy-mzZIfNgj-24" value="" style="edgeStyle=orthogonalEdgeStyle;rounded=0;orthogonalLoop=1;jettySize=auto;html=1;" edge="1" parent="1" source="bDAtfT-rGfy-mzZIfNgj-17">
          <mxGeometry relative="1" as="geometry">
            <mxPoint x="125" y="590" as="targetPoint" />
          </mxGeometry>
        </mxCell>
        <mxCell id="bDAtfT-rGfy-mzZIfNgj-17" value="ecrire i&lt;br&gt;i++" style="rounded=1;whiteSpace=wrap;html=1;arcSize=40;fontColor=#000000;fillColor=#ffffc0;strokeColor=#ff0000;" vertex="1" parent="1">
          <mxGeometry x="45" y="490" width="160" height="40" as="geometry" />
        </mxCell>
        <mxCell id="bDAtfT-rGfy-mzZIfNgj-31" style="edgeStyle=orthogonalEdgeStyle;rounded=0;orthogonalLoop=1;jettySize=auto;html=1;entryX=1;entryY=0.5;entryDx=0;entryDy=0;" edge="1" parent="1" target="bDAtfT-rGfy-mzZIfNgj-17">
          <mxGeometry relative="1" as="geometry">
            <mxPoint x="359.5" y="530" as="targetPoint" />
            <mxPoint x="359.5" y="390" as="sourcePoint" />
          </mxGeometry>
        </mxCell>
        <mxCell id="bDAtfT-rGfy-mzZIfNgj-19" value="i++" style="rounded=1;whiteSpace=wrap;html=1;arcSize=40;fontColor=#000000;fillColor=#ffffc0;strokeColor=#ff0000;" vertex="1" parent="1">
          <mxGeometry x="300" y="340" width="120" height="50" as="geometry" />
        </mxCell>
        <mxCell id="bDAtfT-rGfy-mzZIfNgj-30" value="" style="edgeStyle=orthogonalEdgeStyle;rounded=0;orthogonalLoop=1;jettySize=auto;html=1;" edge="1" parent="1" source="bDAtfT-rGfy-mzZIfNgj-25" target="bDAtfT-rGfy-mzZIfNgj-29">
          <mxGeometry relative="1" as="geometry" />
        </mxCell>
        <mxCell id="bDAtfT-rGfy-mzZIfNgj-25" value="pour i allant de 2 a&lt;br&gt;nombre 1" style="rhombus;whiteSpace=wrap;html=1;fontColor=#000000;fillColor=#ffffc0;strokeColor=#ff0000;" vertex="1" parent="1">
          <mxGeometry x="40" y="590" width="170" height="90" as="geometry" />
        </mxCell>
        <mxCell id="bDAtfT-rGfy-mzZIfNgj-29" value="" style="ellipse;html=1;shape=endState;fillColor=#000000;strokeColor=#ff0000;" vertex="1" parent="1">
          <mxGeometry x="110" y="720" width="30" height="30" as="geometry" />
        </mxCell>
      </root>
    </mxGraphModel>
  </diagram>
</mxfile>
